<svg height="180pt" preserveAspectRatio="xMidYMid meet" viewBox="0 0 180 180" width="180pt" xmlns="http://www.w3.org/2000/svg"><path d="m210 911v-741h70 70v340c0 223 3 340 10 340 6 0 173-151 373-335l362-335h105 105l-50 48c-28 26-102 94-165 152s-184 170-270 250c-256 237-382 354-427 394l-43 38v129c0 71 3 129 7 129 3 0 38-30 77-68 64-60 145-136 411-381 44-41 105-97 135-126 30-28 134-123 230-210 273-250 250-223 250-294v-61h63 64l6 503c11 799 10 967-7 967-8 0-16-4-18-9-1-4-48-50-103-102-55-51-183-172-285-269s-206-196-232-219l-48-43-202 188c-112 104-267 249-345 322l-143 134zm1250 4c0-228-2-415-5-415-6 0-439 400-443 410-1 4 32 41 75 82 204 196 357 338 365 338 4 0 8-187 8-415z" transform="matrix(.1 0 0 -.1 0 180)"/></svg>